<svg t="1732618726191" class="icon" viewBox="0 0 1024 1024" version="1.1" xmlns="http://www.w3.org/2000/svg" p-id="969" width="200" height="200"><path d="M935.5264 79.104a82.3808 82.3808 0 0 0-82.2272-20.0192L120.7808 285.4912a82.5344 82.5344 0 0 0-14.336 151.7568l303.7184 161.2288a21.4528 21.4528 0 0 1 8.448 8.2432l173.6704 307.2a81.152 81.152 0 0 0 71.3728 41.984 83.7632 83.7632 0 0 0 10.24-0.6144 81.3056 81.3056 0 0 0 69.6832-58.9824L956.928 160.9728a82.3296 82.3296 0 0 0-21.4016-81.8688z m-37.5808 64.7168l-213.5552 735.3856a21.1456 21.1456 0 0 1-38.656 4.5056L476.16 583.68l219.6992-223.1808a30.72 30.72 0 0 0-43.8784-43.0592l-219.904 223.1296-296.96-157.5936a21.0944 21.0944 0 0 1 3.6352-38.8096L871.424 117.76a21.8112 21.8112 0 0 1 6.5024-0.9728 21.0944 21.0944 0 0 1 14.5408 6.0928 20.48 20.48 0 0 1 5.4784 20.9408z"  p-id="970"></path></svg>